<svg width="92" height="18" viewBox="0 0 92 18" fill="none" xmlns="http://www.w3.org/2000/svg">
<path d="M22.7129 15.4697C23.1367 15.3148 23.5264 15.0778 23.8818 14.7588C24.2373 14.4443 24.4811 14.041 24.6133 13.5488C24.709 13.2025 24.7682 12.7604 24.791 12.2227C24.8184 11.6803 24.832 10.9694 24.832 10.0898V9.84375V3.5957H26.377V9.80957L26.3838 11.2725C26.3838 11.7236 26.3747 12.1201 26.3564 12.4619C26.3382 12.8037 26.3018 13.1204 26.2471 13.4121C26.1468 13.9681 25.9303 14.4512 25.5977 14.8613C25.2695 15.2715 24.889 15.5928 24.4561 15.8252C24.0231 16.0576 23.597 16.2057 23.1777 16.2695L22.7129 15.4697ZM31.7363 6.09082C32.3379 6.09082 32.8392 6.15918 33.2402 6.2959C33.6413 6.43262 33.9535 6.68327 34.1768 7.04785C34.4001 7.40788 34.5117 7.91602 34.5117 8.57227V14.1094H33.8965C33.6914 14.1094 33.5365 14.0957 33.4316 14.0684C33.3268 14.041 33.2448 13.9772 33.1855 13.877C33.1263 13.7767 33.0967 13.6172 33.0967 13.3984V13.3438C32.8688 13.5534 32.5544 13.7334 32.1533 13.8838C31.7568 14.0342 31.3421 14.1094 30.9092 14.1094C30.4489 14.1094 30.0365 14.0205 29.6719 13.8428C29.3118 13.665 29.0293 13.4121 28.8242 13.084C28.6237 12.7513 28.5234 12.3617 28.5234 11.915C28.5234 11.4229 28.6556 10.9967 28.9199 10.6367C29.1888 10.2767 29.5625 9.9987 30.041 9.80273C30.4648 9.63411 30.9434 9.50879 31.4766 9.42676C32.0143 9.34017 32.5247 9.29688 33.0078 9.29688V8.51074C33.0078 8.14616 32.9486 7.87272 32.8301 7.69043C32.7161 7.50814 32.543 7.38509 32.3105 7.32129C32.0781 7.25749 31.7568 7.22559 31.3467 7.22559C31.1279 7.22559 30.875 7.25521 30.5879 7.31445C30.3053 7.3737 30.0387 7.44889 29.7881 7.54004C29.542 7.62663 29.3597 7.71094 29.2412 7.79297L28.8721 6.80859C28.9906 6.73568 29.2048 6.64225 29.5146 6.52832C29.8291 6.41439 30.1846 6.31413 30.5811 6.22754C30.9821 6.13639 31.3672 6.09082 31.7363 6.09082ZM31.3535 12.9883C31.5677 12.9883 31.7933 12.9564 32.0303 12.8926C32.2673 12.8288 32.4746 12.7536 32.6523 12.667C32.8346 12.5758 32.9531 12.4984 33.0078 12.4346V10.2539C32.6751 10.2539 32.2992 10.2858 31.8799 10.3496C31.4652 10.4134 31.1302 10.5068 30.875 10.6299C30.597 10.762 30.3828 10.917 30.2324 11.0947C30.082 11.2725 30.0068 11.5026 30.0068 11.7852C30.0068 12.5872 30.4557 12.9883 31.3535 12.9883ZM43.0977 6.20703L40.1035 14.1094H38.8389L35.749 6.20703H37.3691L38.9141 10.6436L39.4883 12.5029L40.0146 10.6436L41.498 6.20703H43.0977ZM47.0898 6.09082C47.6914 6.09082 48.1927 6.15918 48.5938 6.2959C48.9948 6.43262 49.307 6.68327 49.5303 7.04785C49.7536 7.40788 49.8652 7.91602 49.8652 8.57227V14.1094H49.25C49.0449 14.1094 48.89 14.0957 48.7852 14.0684C48.6803 14.041 48.5983 13.9772 48.5391 13.877C48.4798 13.7767 48.4502 13.6172 48.4502 13.3984V13.3438C48.2223 13.5534 47.9079 13.7334 47.5068 13.8838C47.1104 14.0342 46.6956 14.1094 46.2627 14.1094C45.8024 14.1094 45.39 14.0205 45.0254 13.8428C44.6654 13.665 44.3828 13.4121 44.1777 13.084C43.9772 12.7513 43.877 12.3617 43.877 11.915C43.877 11.4229 44.0091 10.9967 44.2734 10.6367C44.5423 10.2767 44.916 9.9987 45.3945 9.80273C45.8184 9.63411 46.2969 9.50879 46.8301 9.42676C47.3678 9.34017 47.8783 9.29688 48.3613 9.29688V8.51074C48.3613 8.14616 48.3021 7.87272 48.1836 7.69043C48.0697 7.50814 47.8965 7.38509 47.6641 7.32129C47.4316 7.25749 47.1104 7.22559 46.7002 7.22559C46.4814 7.22559 46.2285 7.25521 45.9414 7.31445C45.6589 7.3737 45.3923 7.44889 45.1416 7.54004C44.8955 7.62663 44.7132 7.71094 44.5947 7.79297L44.2256 6.80859C44.3441 6.73568 44.5583 6.64225 44.8682 6.52832C45.1826 6.41439 45.5381 6.31413 45.9346 6.22754C46.3356 6.13639 46.7207 6.09082 47.0898 6.09082ZM46.707 12.9883C46.9212 12.9883 47.1468 12.9564 47.3838 12.8926C47.6208 12.8288 47.8281 12.7536 48.0059 12.667C48.1882 12.5758 48.3066 12.4984 48.3613 12.4346V10.2539C48.0286 10.2539 47.6527 10.2858 47.2334 10.3496C46.8187 10.4134 46.4837 10.5068 46.2285 10.6299C45.9505 10.762 45.7363 10.917 45.5859 11.0947C45.4355 11.2725 45.3604 11.5026 45.3604 11.7852C45.3604 12.5872 45.8092 12.9883 46.707 12.9883ZM52.21 12.2637C52.488 12.4368 52.8548 12.5872 53.3105 12.7148C53.7663 12.8379 54.2174 12.8994 54.6641 12.8994C55.3385 12.8994 55.8512 12.7832 56.2021 12.5508C56.5576 12.3184 56.7354 11.9538 56.7354 11.457C56.7354 11.1289 56.6488 10.8486 56.4756 10.6162C56.307 10.3838 56.0723 10.1764 55.7715 9.99414C55.4707 9.81185 55.0241 9.57715 54.4316 9.29004C53.6706 8.9209 53.0462 8.47884 52.5586 7.96387C52.071 7.44889 51.8271 6.84733 51.8271 6.15918C51.8271 5.53027 51.9912 5.01758 52.3193 4.62109C52.6475 4.22005 53.0713 3.93066 53.5908 3.75293C54.1104 3.5752 54.6755 3.48633 55.2861 3.48633C55.8558 3.48633 56.3457 3.54102 56.7559 3.65039C57.166 3.75521 57.4827 3.88053 57.7061 4.02637L57.3984 5.22949C57.1022 5.05176 56.7992 4.91732 56.4893 4.82617C56.1794 4.73047 55.7715 4.68262 55.2656 4.68262C54.9193 4.68262 54.5957 4.72819 54.2949 4.81934C53.9941 4.91048 53.7503 5.05176 53.5635 5.24316C53.3766 5.43457 53.2832 5.67155 53.2832 5.9541C53.2832 6.28678 53.3493 6.56478 53.4814 6.78809C53.6136 7.00684 53.8164 7.20964 54.0898 7.39648C54.3678 7.57878 54.7894 7.81576 55.3545 8.10742C55.9378 8.4082 56.4255 8.69303 56.8174 8.96191C57.2139 9.22624 57.5488 9.55208 57.8223 9.93945C58.0957 10.3268 58.2324 10.7734 58.2324 11.2793C58.2324 11.9036 58.0866 12.4277 57.7949 12.8516C57.5078 13.2754 57.1045 13.5921 56.585 13.8018C56.0654 14.0068 55.4593 14.1094 54.7666 14.1094C54.3382 14.1094 53.9235 14.0775 53.5225 14.0137C53.126 13.9499 52.7796 13.8724 52.4834 13.7812C52.1917 13.6901 51.9798 13.6012 51.8477 13.5146L52.21 12.2637ZM63.1406 6.09766C63.5827 6.09766 63.9746 6.14095 64.3164 6.22754C64.6582 6.30957 64.9043 6.40072 65.0547 6.50098L64.8154 7.69043C64.6058 7.5446 64.3597 7.4375 64.0771 7.36914C63.7946 7.29622 63.4574 7.25977 63.0654 7.25977C62.6735 7.25977 62.3066 7.36003 61.9648 7.56055C61.6276 7.76107 61.3542 8.07552 61.1445 8.50391C60.9349 8.92773 60.8301 9.46322 60.8301 10.1104C60.8301 10.7119 60.9258 11.2292 61.1172 11.6621C61.3086 12.0905 61.5706 12.4163 61.9033 12.6396C62.236 12.863 62.6097 12.9746 63.0244 12.9746C63.3844 12.9746 63.7354 12.929 64.0771 12.8379C64.4189 12.7422 64.6878 12.6351 64.8838 12.5166L65.1914 13.3711C64.9499 13.5944 64.6126 13.7744 64.1797 13.9111C63.7467 14.0433 63.2865 14.1094 62.7988 14.1094C62.0879 14.1094 61.4727 13.9408 60.9531 13.6035C60.4382 13.2617 60.0462 12.7946 59.7773 12.2021C59.5085 11.6097 59.374 10.9375 59.374 10.1855C59.374 9.40625 59.5153 8.70898 59.7979 8.09375C60.085 7.47396 60.5111 6.98633 61.0762 6.63086C61.6413 6.27539 62.3294 6.09766 63.1406 6.09766ZM70.1816 6.09082C70.5462 6.09082 70.7992 6.12272 70.9404 6.18652V7.59473C70.8447 7.54004 70.7194 7.49674 70.5645 7.46484C70.4141 7.42839 70.1976 7.41016 69.915 7.41016C69.5687 7.41016 69.2474 7.47396 68.9512 7.60156C68.6595 7.72461 68.4134 7.875 68.2129 8.05273V14H66.709V6.2207H67.9736L68.0762 7.08203C68.1764 6.94531 68.3382 6.79948 68.5615 6.64453C68.7894 6.48958 69.0469 6.3597 69.334 6.25488C69.6257 6.14551 69.9082 6.09082 70.1816 6.09082ZM73.9893 6.2207V14H72.4854V6.2207H73.9893ZM72.1982 3.86914C72.1982 3.67773 72.2507 3.5 72.3555 3.33594C72.4648 3.17188 72.6061 3.04199 72.7793 2.94629C72.9525 2.85059 73.1279 2.80273 73.3057 2.80273C73.6156 2.80273 73.8525 2.88932 74.0166 3.0625C74.1852 3.23568 74.2695 3.45671 74.2695 3.72559C74.2695 3.92611 74.2171 4.1084 74.1123 4.27246C74.0075 4.43652 73.8708 4.56413 73.7021 4.65527C73.5335 4.74642 73.3535 4.79199 73.1621 4.79199C72.9889 4.79199 72.8294 4.75553 72.6836 4.68262C72.5378 4.60514 72.4193 4.49577 72.3281 4.35449C72.2415 4.21322 72.1982 4.05143 72.1982 3.86914ZM80.0322 6.09766C80.5973 6.09766 81.1123 6.23665 81.5771 6.51465C82.042 6.78809 82.4134 7.20508 82.6914 7.76562C82.9694 8.32161 83.1084 9.00521 83.1084 9.81641C83.1084 10.6504 82.9466 11.3932 82.623 12.0449C82.2995 12.6966 81.8415 13.2048 81.249 13.5693C80.6611 13.9294 79.9798 14.1094 79.2051 14.1094C78.7402 14.1094 78.3141 14.0433 77.9268 13.9111L77.9473 14.9502V17.459H76.4434V6.20703H77.8037V7.04785C78.0589 6.77897 78.3551 6.55339 78.6924 6.37109C79.0296 6.1888 79.4762 6.09766 80.0322 6.09766ZM81.5771 9.94629C81.5771 9.0485 81.4085 8.38086 81.0713 7.94336C80.7386 7.5013 80.2533 7.28027 79.6152 7.28027C79.2826 7.28027 78.9749 7.34408 78.6924 7.47168C78.4144 7.59473 78.166 7.74284 77.9473 7.91602V12.667C78.0885 12.79 78.2708 12.8789 78.4941 12.9336C78.722 12.9883 79.0068 13.0156 79.3486 13.0156C79.777 13.0156 80.1598 12.8971 80.4971 12.6602C80.8343 12.4232 81.0986 12.0745 81.29 11.6143C81.4814 11.154 81.5771 10.598 81.5771 9.94629ZM85.3301 7.3418H84.3184V6.52832L84.5645 6.45996C84.7741 6.40072 84.929 6.35286 85.0293 6.31641C85.1296 6.27539 85.2161 6.2207 85.2891 6.15234C85.3665 6.07943 85.4281 5.98145 85.4736 5.8584C85.542 5.68522 85.6423 5.37305 85.7744 4.92188L85.9248 4.42969H86.8271V6.20703H89.0283V7.3418H86.8271V11.2861C86.8271 11.8057 86.8477 12.1748 86.8887 12.3936C86.9297 12.6077 87.0049 12.7467 87.1143 12.8105C87.2282 12.8743 87.4196 12.9062 87.6885 12.9062C87.8844 12.9062 88.1214 12.8743 88.3994 12.8105C88.682 12.7467 88.8893 12.6807 89.0215 12.6123L89.2812 13.4736C89.0579 13.6377 88.7367 13.7858 88.3174 13.918C87.9027 14.0456 87.5062 14.1094 87.1279 14.1094C86.5583 14.1094 86.1162 13.9681 85.8018 13.6855C85.4873 13.3984 85.3301 12.8812 85.3301 12.1338V7.3418Z" fill="#837E9F"/>
<circle cx="7.5" cy="7.5" r="6.5" fill="#E7DE79" stroke="#837E9F" stroke-width="2"/>
</svg>
