<svg width="128" height="20" viewBox="0 0 128 20" fill="none" xmlns="http://www.w3.org/2000/svg">
<path d="M30.584 9.1709C29.9824 9.33496 29.4743 9.45573 29.0596 9.5332L28.8887 8.6377C29.1667 8.55566 29.4811 8.43034 29.832 8.26172C30.1875 8.08854 30.5156 7.90853 30.8164 7.72168C31.1172 7.53483 31.3337 7.38216 31.4658 7.26367L32.1494 7.43457V16H30.584V9.1709ZM35.2871 11.6934C35.2871 10.8138 35.4535 10.0413 35.7861 9.37598C36.1188 8.70605 36.5768 8.19108 37.1602 7.83105C37.7435 7.47103 38.402 7.29102 39.1357 7.29102C40.4118 7.29102 41.3301 7.67839 41.8906 8.45312C42.4557 9.22786 42.7383 10.2624 42.7383 11.5566C42.7383 12.4408 42.5811 13.2269 42.2666 13.915C41.9567 14.6032 41.5146 15.141 40.9404 15.5283C40.3708 15.9157 39.7122 16.1094 38.9648 16.1094C38.1172 16.1094 37.4176 15.9089 36.8662 15.5078C36.3193 15.1068 35.9183 14.5736 35.6631 13.9082C35.4124 13.2428 35.2871 12.5046 35.2871 11.6934ZM41.1865 11.7002C41.1865 11.0576 41.109 10.4857 40.9541 9.98438C40.8037 9.47852 40.569 9.07975 40.25 8.78809C39.931 8.49186 39.5299 8.34375 39.0469 8.34375C38.3314 8.33919 37.7845 8.62174 37.4062 9.19141C37.028 9.75651 36.8389 10.5404 36.8389 11.543C36.8389 12.1673 36.9209 12.7484 37.085 13.2861C37.249 13.8193 37.4974 14.25 37.8301 14.5781C38.1673 14.9062 38.582 15.0703 39.0742 15.0703C39.7715 15.0703 40.2979 14.7764 40.6533 14.1885C41.0088 13.596 41.1865 12.7666 41.1865 11.7002ZM44.7617 11.6934C44.7617 10.8138 44.9281 10.0413 45.2607 9.37598C45.5934 8.70605 46.0514 8.19108 46.6348 7.83105C47.2181 7.47103 47.8766 7.29102 48.6104 7.29102C49.8864 7.29102 50.8047 7.67839 51.3652 8.45312C51.9303 9.22786 52.2129 10.2624 52.2129 11.5566C52.2129 12.4408 52.0557 13.2269 51.7412 13.915C51.4313 14.6032 50.9893 15.141 50.415 15.5283C49.8454 15.9157 49.1868 16.1094 48.4395 16.1094C47.5918 16.1094 46.8923 15.9089 46.3408 15.5078C45.7939 15.1068 45.3929 14.5736 45.1377 13.9082C44.887 13.2428 44.7617 12.5046 44.7617 11.6934ZM50.6611 11.7002C50.6611 11.0576 50.5837 10.4857 50.4287 9.98438C50.2783 9.47852 50.0436 9.07975 49.7246 8.78809C49.4056 8.49186 49.0046 8.34375 48.5215 8.34375C47.806 8.33919 47.2591 8.62174 46.8809 9.19141C46.5026 9.75651 46.3135 10.5404 46.3135 11.543C46.3135 12.1673 46.3955 12.7484 46.5596 13.2861C46.7236 13.8193 46.972 14.25 47.3047 14.5781C47.6419 14.9062 48.0566 15.0703 48.5488 15.0703C49.2461 15.0703 49.7725 14.7764 50.1279 14.1885C50.4834 13.596 50.6611 12.7666 50.6611 11.7002Z" fill="#837E9F"/>
<path d="M102.584 9.1709C101.982 9.33496 101.474 9.45573 101.06 9.5332L100.889 8.6377C101.167 8.55566 101.481 8.43034 101.832 8.26172C102.188 8.08854 102.516 7.90853 102.816 7.72168C103.117 7.53483 103.334 7.38216 103.466 7.26367L104.149 7.43457V16H102.584V9.1709ZM107.287 11.6934C107.287 10.8138 107.453 10.0413 107.786 9.37598C108.119 8.70605 108.577 8.19108 109.16 7.83105C109.743 7.47103 110.402 7.29102 111.136 7.29102C112.412 7.29102 113.33 7.67839 113.891 8.45312C114.456 9.22786 114.738 10.2624 114.738 11.5566C114.738 12.4408 114.581 13.2269 114.267 13.915C113.957 14.6032 113.515 15.141 112.94 15.5283C112.371 15.9157 111.712 16.1094 110.965 16.1094C110.117 16.1094 109.418 15.9089 108.866 15.5078C108.319 15.1068 107.918 14.5736 107.663 13.9082C107.412 13.2428 107.287 12.5046 107.287 11.6934ZM113.187 11.7002C113.187 11.0576 113.109 10.4857 112.954 9.98438C112.804 9.47852 112.569 9.07975 112.25 8.78809C111.931 8.49186 111.53 8.34375 111.047 8.34375C110.331 8.33919 109.785 8.62174 109.406 9.19141C109.028 9.75651 108.839 10.5404 108.839 11.543C108.839 12.1673 108.921 12.7484 109.085 13.2861C109.249 13.8193 109.497 14.25 109.83 14.5781C110.167 14.9062 110.582 15.0703 111.074 15.0703C111.771 15.0703 112.298 14.7764 112.653 14.1885C113.009 13.596 113.187 12.7666 113.187 11.7002ZM116.762 11.6934C116.762 10.8138 116.928 10.0413 117.261 9.37598C117.593 8.70605 118.051 8.19108 118.635 7.83105C119.218 7.47103 119.877 7.29102 120.61 7.29102C121.886 7.29102 122.805 7.67839 123.365 8.45312C123.93 9.22786 124.213 10.2624 124.213 11.5566C124.213 12.4408 124.056 13.2269 123.741 13.915C123.431 14.6032 122.989 15.141 122.415 15.5283C121.845 15.9157 121.187 16.1094 120.439 16.1094C119.592 16.1094 118.892 15.9089 118.341 15.5078C117.794 15.1068 117.393 14.5736 117.138 13.9082C116.887 13.2428 116.762 12.5046 116.762 11.6934ZM122.661 11.7002C122.661 11.0576 122.584 10.4857 122.429 9.98438C122.278 9.47852 122.044 9.07975 121.725 8.78809C121.406 8.49186 121.005 8.34375 120.521 8.34375C119.806 8.33919 119.259 8.62174 118.881 9.19141C118.503 9.75651 118.313 10.5404 118.313 11.543C118.313 12.1673 118.396 12.7484 118.56 13.2861C118.724 13.8193 118.972 14.25 119.305 14.5781C119.642 14.9062 120.057 15.0703 120.549 15.0703C121.246 15.0703 121.772 14.7764 122.128 14.1885C122.483 13.596 122.661 12.7666 122.661 11.7002Z" fill="#837E9F"/>
<path d="M77 2.5V12.5" stroke="#837E9F" stroke-width="2" stroke-linecap="round" stroke-linejoin="round"/>
<path d="M87 7.5C88.3807 7.5 89.5 6.38071 89.5 5C89.5 3.61929 88.3807 2.5 87 2.5C85.6193 2.5 84.5 3.61929 84.5 5C84.5 6.38071 85.6193 7.5 87 7.5Z" stroke="#837E9F" stroke-width="2" stroke-linecap="round" stroke-linejoin="round"/>
<path d="M77 17.5C78.3807 17.5 79.5 16.3807 79.5 15C79.5 13.6193 78.3807 12.5 77 12.5C75.6193 12.5 74.5 13.6193 74.5 15C74.5 16.3807 75.6193 17.5 77 17.5Z" stroke="#837E9F" stroke-width="2" stroke-linecap="round" stroke-linejoin="round"/>
<path d="M87 7.5C87 9.48912 86.2098 11.3968 84.8033 12.8033C83.3968 14.2098 81.4891 15 79.5 15" stroke="#837E9F" stroke-width="2" stroke-linecap="round" stroke-linejoin="round"/>
<path d="M10 1.66667L12.575 6.88334L18.3333 7.725L14.1667 11.7833L15.15 17.5167L10 14.8083L4.85001 17.5167L5.83334 11.7833L1.66667 7.725L7.42501 6.88334L10 1.66667Z" stroke="#837E9F" stroke-width="2" stroke-linecap="round" stroke-linejoin="round"/>
</svg>
